<?xml version="1.0" encoding="utf-8"?>
<!-- Generator: Adobe Illustrator 19.1.0, SVG Export Plug-In . SVG Version: 6.00 Build 0)  -->
<svg version="1.1" id="Layer_1" xmlns="http://www.w3.org/2000/svg" xmlns:xlink="http://www.w3.org/1999/xlink" x="0px" y="0px"
	 viewBox="0 0 120 120" style="enable-background:new 0 0 120 120;" xml:space="preserve">
 <style type="text/css">.st0{fill:#F1F1F2;}
	.st1{fill:#640F13;}
	.st2{fill:#FCE8D0;}
	.st3{fill:#E6E7E8;}
	.st4{fill:#DB4342;}
	.st5{fill:#FACCAA;}
	.st6{fill:#FFFFFF;}
	.st7{fill:#C83D3C;}
	.st8{fill:#98CF97;}
	.st9{fill:#83B585;}
	.st10{fill:#E86363;}
	.st11{fill:#FFDF00;}
	.st12{fill:#FFF69D;}
	.st13{fill:#FFF5CA;}
	.st14{fill:#D0AF8B;}
	.st15{fill:#BC3839;}
	.st16{fill:#E8DEB9;}
	.st17{fill:#DFC0A9;}
	.st18{fill:#640F14;}
	.st19{fill:#BADDEE;}
	.st20{fill:#9DD3ED;}
	.st21{fill:#D17663;}
	.st22{fill:#839CC1;}
	.st23{fill:#E0D682;}
	.st24{fill:#E07B25;}
	.st25{fill:#77A9C3;}
	.st26{fill:#008BB3;}
	.st27{fill:#2385A5;}
	.st28{fill:#6CADCA;}
	.st29{fill:#DBDCDD;}
	.st30{fill:#7AB17B;}
	.st31{fill:#C3996B;}
	.st32{fill:#B18C62;}
	.st33{fill:#D7B492;}
	.st34{fill:#F27575;}
	.st35{fill:#992E34;}
	.st36{fill:#D0D2D3;}
	.st37{fill:#AE3334;}
	.st38{fill:#A9865E;}
	.st39{fill:#231F20;}
	.st40{fill:#FCC010;}
	.st41{fill:#F4EDB8;}
	.st42{fill:#E29E16;}</style>

 <g>
  <title>background</title>
  <rect x="-1" y="-1" width="122" height="122" id="canvas_background" fill="none"/>
 </g>
 <g>
  <title>Layer 1</title>
  <g id="svg_1" stroke="null">
   <g id="svg_2" stroke="null">
    <path class="st4" d="m88.852312,51.765445c-3.678547,-5.080896 -7.707431,-11.563418 -11.385978,-17.345128c-0.875844,1.05122 -1.751689,1.927236 -2.802702,2.803253c-4.904729,3.504066 -12.436991,8.409759 -22.246449,14.016265c-5.430236,3.15366 -9.45912,4.380083 -12.787329,4.204879c1.751689,2.978456 3.328209,5.606506 4.554391,7.358539c3.503378,5.431303 1.051013,17.169924 -8.583276,22.77643c-9.809458,5.431303 -7.181924,16.819518 -0.175169,24.35326c7.181924,7.708946 14.714187,7.183336 28.727698,-1.927236c14.18868,-9.110572 19.618916,-12.264232 27.326347,-18.045941c12.436991,-9.460979 4.904729,-27.857326 -2.627533,-38.194321z" id="svg_3" stroke="null"/>
    <path class="st1" d="m46.111103,116.415466c-4.379222,0 -8.057769,-1.927236 -11.561147,-5.781709c-4.904729,-5.256099 -7.181924,-11.388215 -6.30608,-16.819518c0.525507,-3.854473 2.977871,-7.183336 6.831587,-9.285775c4.554391,-2.62805 7.8826,-6.832929 9.108782,-11.913825c0.875844,-3.504066 0.525507,-7.008132 -0.875844,-9.285775c-1.051013,-1.752033 -2.802702,-4.380083 -4.554391,-7.358539c-0.175169,-0.350407 -0.175169,-0.700813 0,-1.05122c0.175169,-0.350407 0.525507,-0.52561 0.875844,-0.52561l0,0c0,0 0,0 0,0c3.328209,0 7.181924,-1.401626 12.261822,-4.204879c7.707431,-4.380083 15.064524,-8.935369 22.07128,-13.841061c1.051013,-0.700813 1.926858,-1.57683 2.627533,-2.452846c0.175169,-0.350407 0.525507,-0.52561 0.875844,-0.350407c0.350338,0 0.700676,0.175203 0.875844,0.52561c3.853716,5.956913 7.707431,12.264232 11.385978,17.169924c7.181924,9.986589 15.940369,29.434156 2.277196,39.771151c-6.130911,4.730489 -10.860471,7.708946 -20.144422,13.665858l-7.181924,4.380083c-7.707431,4.905693 -13.663173,7.358539 -18.567902,7.358539l0,-0.000001zm-4.554391,-59.919532c1.401351,2.277643 2.627533,4.380083 3.503378,5.781709c1.751689,2.803253 2.102027,6.832929 1.051013,11.037808c-1.401351,5.606506 -5.079898,10.336995 -10.159796,13.315451c-3.328209,1.927236 -5.255067,4.380083 -5.780573,7.708946c-0.700676,4.555286 1.57652,10.336995 5.780573,14.892281c6.656418,7.183336 13.663173,6.832929 27.326347,-2.10244l7.181924,-4.555286c9.283951,-5.956913 14.013511,-8.935369 20.144422,-13.490655c12.261822,-9.285775 4.028884,-27.331716 -2.627533,-36.617492c-3.328209,-4.555286 -7.006756,-10.336995 -10.685302,-16.118704c-0.700676,0.700813 -1.401351,1.226423 -2.102027,1.752033c-7.006756,4.905693 -14.539018,9.636182 -22.246449,14.016265c-4.379222,2.62805 -8.057769,4.029676 -11.385978,4.380083l0.000001,0.000001z" id="svg_4" stroke="null"/>
   </g>
   <path class="st15" d="m62.927317,100.296762c-12.962498,7.708946 -23.822969,6.657726 -26.80084,0.700813c-2.277196,-4.555286 -4.204053,-9.636182 -4.904729,-11.738622c-4.379222,5.956913 -1.57652,14.541875 4.028884,20.67399c7.181924,7.708946 14.714187,7.183336 28.727698,-1.927236c12.436991,-7.884149 18.217564,-11.388215 24.523644,-16.118704c0.175169,0.175203 -12.61216,0.700813 -25.574658,8.409759l0.000001,0z" id="svg_5" stroke="null"/>
   <path class="st1" d="m46.111103,116.415466c-4.379222,0 -8.057769,-1.927236 -11.561147,-5.781709c-4.904729,-5.256099 -7.181924,-11.388215 -6.30608,-16.819518c0.525507,-3.854473 2.977871,-7.183336 6.831587,-9.285775c4.554391,-2.62805 7.8826,-6.832929 9.108782,-11.913825c0.875844,-3.504066 0.525507,-7.008132 -0.875844,-9.285775c-1.051013,-1.752033 -2.802702,-4.380083 -4.554391,-7.358539c-0.175169,-0.350407 -0.175169,-0.700813 0,-1.05122c0.175169,-0.350407 0.525507,-0.52561 0.875844,-0.52561l0,0c0,0 0,0 0,0c3.328209,0 7.181924,-1.401626 12.261822,-4.204879c7.707431,-4.380083 15.064524,-8.935369 22.07128,-13.841061c1.051013,-0.700813 1.926858,-1.57683 2.627533,-2.452846c0.175169,-0.350407 0.525507,-0.52561 0.875844,-0.350407c0.350338,0 0.700676,0.175203 0.875844,0.52561c3.853716,5.956913 7.707431,12.264232 11.385978,17.169924c7.181924,9.986589 15.940369,29.434156 2.277196,39.771151c-6.130911,4.730489 -10.860471,7.708946 -20.144422,13.665858l-7.181924,4.380083c-7.707431,4.905693 -13.663173,7.358539 -18.567902,7.358539l0,-0.000001zm-4.554391,-59.919532c1.401351,2.277643 2.627533,4.380083 3.503378,5.781709c1.751689,2.803253 2.102027,6.832929 1.051013,11.037808c-1.401351,5.606506 -5.079898,10.336995 -10.159796,13.315451c-3.328209,1.927236 -5.255067,4.380083 -5.780573,7.708946c-0.700676,4.555286 1.57652,10.336995 5.780573,14.892281c6.656418,7.183336 13.663173,6.832929 27.326347,-2.10244l7.181924,-4.555286c9.283951,-5.956913 14.013511,-8.935369 20.144422,-13.490655c12.261822,-9.285775 4.028884,-27.331716 -2.627533,-36.617492c-3.328209,-4.555286 -7.006756,-10.336995 -10.685302,-16.118704c-0.700676,0.700813 -1.401351,1.226423 -2.102027,1.752033c-7.006756,4.905693 -14.539018,9.636182 -22.246449,14.016265c-4.379222,2.62805 -8.057769,4.029676 -11.385978,4.380083l0.000001,0.000001z" id="svg_6" stroke="null"/>
   <path class="st1" d="m61.876303,4.810959c2.977871,0 5.955742,0.876017 7.707431,3.504066c2.627533,3.679269 2.627533,8.935369 7.707431,14.541875c3.503378,3.679269 2.802702,8.234556 0.175169,11.738622l0,0c3.678547,5.781709 7.707431,12.264232 11.385978,17.345128c1.57652,2.277643 3.15304,4.730489 4.72956,7.533742l0,0c1.226182,2.452846 2.277196,4.905693 3.15304,7.533742c0,0.175203 0.175169,0.52561 0.175169,0.700813c0.175169,0.52561 0.350338,1.05122 0.350338,1.401626c0,0.350407 0.175169,0.700813 0.175169,1.05122c0.175169,0.52561 0.175169,0.876017 0.350338,1.401626c0.175169,0.52561 0.175169,1.226423 0.175169,1.752033c0,0.350407 0,0.876017 0.175169,1.226423c0,0.52561 0,1.05122 0,1.57683c0,0.350407 0,0.700813 0,0.876017c0,0.52561 0,0.876017 -0.175169,1.401626c0,0.350407 0,0.52561 -0.175169,0.876017c-0.175169,0.52561 -0.175169,1.05122 -0.350338,1.752033c0,0.175203 0,0.350407 -0.175169,0.52561c-0.175169,0.700813 -0.525507,1.401626 -0.875844,2.10244c0,0.175203 -0.175169,0.350407 -0.350338,0.52561c-0.175169,0.52561 -0.525507,1.05122 -0.875844,1.57683c-0.175169,0.175203 -0.350338,0.52561 -0.525507,0.700813c-0.350338,0.52561 -0.700676,0.876017 -1.051013,1.401626c-0.175169,0.175203 -0.350338,0.350407 -0.525507,0.52561c-0.525507,0.52561 -1.226182,1.226423 -1.926858,1.752033c-0.875844,0.700813 -1.926858,1.401626 -2.802702,2.10244c0,0 0,0 0,0c-6.30608,4.555286 -12.086653,8.059352 -24.523644,16.118704c-7.532262,4.905693 -13.137667,7.183336 -17.867227,7.183336c-4.028884,0 -7.532262,-1.752033 -10.860471,-5.431303c-5.605404,-5.956913 -8.232938,-14.191468 -4.379222,-20.148381c0,0 0,0 0,0l0,0c1.051013,-1.57683 2.452364,-2.978456 4.554391,-4.204879c9.809458,-5.431303 12.086653,-17.169924 8.583276,-22.77643c-1.051013,-1.752033 -2.802702,-4.380083 -4.554391,-7.358539c-2.627533,0 -4.72956,-0.700813 -6.831587,-1.752033c-4.904729,-2.452846 -5.079898,-8.234556 -8.057769,-12.965045c-2.977871,-4.730489 -4.554391,-9.811385 1.051013,-15.593095c5.430236,-5.781709 21.545773,-16.118704 26.450502,-18.221144c2.977871,-1.226423 6.656418,-2.277643 9.984627,-2.277643m0,-4.380083l0,0c-4.379222,0 -8.583276,1.401626 -11.385978,2.62805c-5.605404,2.277643 -22.07128,13.140248 -27.851853,19.272364c-8.933613,9.110572 -3.503378,17.870738 -1.57652,20.849194c0.875844,1.226423 1.401351,2.803253 2.102027,4.380083c1.401351,3.504066 3.15304,7.708946 7.707431,10.161792c2.102027,1.05122 4.204053,1.752033 6.130911,2.10244c1.401351,2.452846 2.627533,4.204879 3.328209,5.431303c0.700676,1.05122 1.226182,3.504066 0.350338,6.657726c-1.051013,4.029676 -3.853716,7.708946 -7.532262,9.811385c-2.452364,1.401626 -4.379222,3.15366 -5.955742,5.256099c-0.175169,0.175203 -0.350338,0.52561 -0.525507,0.700813c-4.204053,7.183336 -2.277196,17.169924 5.255067,25.054073c4.204053,4.555286 8.758444,6.832929 14.013511,6.832929c5.430236,0 11.736316,-2.452846 20.319591,-7.884149c2.627533,-1.752033 5.079898,-3.15366 7.181924,-4.555286c7.707431,-4.905693 12.436991,-7.884149 17.516889,-11.563418c0.875844,-0.700813 1.926858,-1.401626 2.802702,-2.10244c0.875844,-0.700813 1.57652,-1.401626 2.452364,-2.10244c0.175169,-0.175203 0.350338,-0.350407 0.525507,-0.52561l0.175169,-0.175203c0.525507,-0.52561 1.051013,-1.05122 1.401351,-1.752033c0.175169,-0.350407 0.350338,-0.52561 0.525507,-0.876017c0.350338,-0.52561 0.700676,-1.226423 1.051013,-1.927236l0,-0.175203c0.175169,-0.175203 0.175169,-0.350407 0.350338,-0.52561c0.350338,-0.876017 0.700676,-1.752033 1.051013,-2.62805c0,-0.175203 0.175169,-0.350407 0.175169,-0.700813c0.175169,-0.876017 0.350338,-1.57683 0.525507,-2.10244c0,-0.350407 0.175169,-0.700813 0.175169,-1.05122c0,-0.52561 0.175169,-1.226423 0.175169,-1.752033c0,-0.52561 0,-0.876017 0,-1.226423c0,-0.52561 0,-1.226423 0,-1.752033c0,-0.52561 0,-1.05122 -0.175169,-1.57683c0,-0.700813 -0.175169,-1.401626 -0.350338,-2.10244c0,-0.52561 -0.175169,-0.876017 -0.175169,-1.401626l0,-0.175203c-0.175169,-0.350407 -0.175169,-0.700813 -0.175169,-1.05122c-0.175169,-0.52561 -0.350338,-1.05122 -0.350338,-1.57683c0,-0.350407 -0.175169,-0.52561 -0.175169,-0.876017c-0.875844,-2.803253 -1.926858,-5.606506 -3.328209,-8.234556c-1.401351,-2.978456 -3.15304,-5.781709 -5.079898,-8.234556c-2.977871,-4.204879 -6.481249,-9.460979 -9.634289,-14.717078c2.452364,-4.905693 1.751689,-10.512199 -2.102027,-14.717078c-2.452364,-2.803253 -3.503378,-5.256099 -4.554391,-8.059352c-0.700676,-2.10244 -1.57652,-4.029676 -2.977871,-5.956913c-1.751689,-2.277643 -5.079898,-5.080896 -11.385978,-5.080896l0,0l0.000001,0.000001z" id="svg_7" stroke="null"/>
   <g id="svg_8" stroke="null">
    <path class="st13" d="m52.242014,7.088602c-4.904729,2.10244 -21.020267,12.439435 -26.450502,18.221144s-4.028884,10.862605 -1.051013,15.593095c2.977871,4.730489 3.328209,10.512199 8.057769,12.965045c4.904729,2.452846 9.809458,2.978456 19.618916,-2.452846c9.809458,-5.431303 17.166551,-10.512199 22.246449,-14.016265c4.904729,-3.504066 7.181924,-9.636182 2.802702,-14.541875c-5.079898,-5.606506 -5.079898,-10.862605 -7.707431,-14.541875c-4.028884,-5.606506 -12.436991,-3.328863 -17.516889,-1.226423l-0.000001,0z" id="svg_9" stroke="null"/>
    <path class="st1" d="m39.629854,56.671138c-2.802702,0 -5.079898,-0.700813 -7.357093,-1.927236c-3.503378,-1.752033 -4.904729,-5.256099 -6.130911,-8.409759c-0.700676,-1.57683 -1.401351,-3.328863 -2.277196,-4.905693c-2.802702,-4.380083 -5.079898,-10.336995 1.051013,-16.819518c5.780573,-5.956913 22.07128,-16.469111 26.80084,-18.396347c0,0 0,0 0,0c4.028884,-1.752033 14.013511,-4.905693 18.743071,1.57683c1.051013,1.57683 1.751689,3.328863 2.452364,5.256099c1.051013,2.803253 2.277196,5.956913 5.079898,9.110572c2.102027,2.277643 2.977871,4.905693 2.627533,7.533742c-0.350338,3.15366 -2.452364,6.307319 -5.605404,8.584962c-7.006756,4.905693 -14.539018,9.636182 -22.246449,14.016265c-5.430236,3.15366 -9.634289,4.380083 -13.137667,4.380083l0.000001,0zm12.962498,-48.531317c-4.554391,1.927236 -20.49476,12.264232 -26.100164,17.870738c-5.255067,5.431303 -3.503378,9.986589 -0.875844,14.191468c1.051013,1.752033 1.751689,3.504066 2.452364,5.256099c1.226182,3.15366 2.277196,5.781709 5.079898,7.183336c4.554391,2.277643 9.283951,2.803253 18.567902,-2.452846c7.707431,-4.380083 15.064524,-8.935369 22.07128,-13.841061c2.627533,-1.927236 4.379222,-4.380083 4.554391,-7.008132c0.175169,-2.10244 -0.525507,-4.029676 -2.102027,-5.781709c-3.328209,-3.504066 -4.554391,-6.832929 -5.605404,-9.811385c-0.700676,-1.752033 -1.226182,-3.328863 -2.277196,-4.730489c-3.328209,-5.431303 -12.086653,-2.452846 -15.7652,-0.876017l0,0l0,-0.000002z" id="svg_10" stroke="null"/>
   </g>
   <path class="st1" d="m30.521072,33.369098c-1.401351,0 -2.102027,-0.350407 -2.452364,-0.52561c-0.525507,-0.350407 -0.700676,-1.05122 -0.350338,-1.57683c0.350338,-0.52561 1.051013,-0.700813 1.401351,-0.350407c0.175169,0 4.028884,1.57683 16.991382,-6.482522c14.363849,-8.935369 15.414862,-11.388215 15.414862,-13.841061c0,-0.52561 0.525507,-1.05122 1.051013,-1.05122c0.525507,0 1.051013,0.52561 1.051013,1.05122c0,3.679269 -2.452364,6.832929 -16.465876,15.593095c-8.933613,5.956913 -14.013511,7.183336 -16.641044,7.183336l0.000001,-0.000001z" id="svg_11" stroke="null"/>
   <path class="st18" d="m45.410428,107.304894c-0.525507,0 -1.051013,0 -1.57652,-0.175203c-0.525507,0 -1.051013,-0.700813 -0.875844,-1.226423c0,-0.52561 0.700676,-1.05122 1.226182,-0.876017c1.751689,0.175203 3.678547,0 5.955742,-0.700813c0.525507,-0.175203 1.226182,0.175203 1.401351,0.700813c0.175169,0.52561 -0.175169,1.226423 -0.700676,1.401626c-2.102027,0.52561 -3.853716,0.876017 -5.430236,0.876017l0.000001,0zm-7.357093,-2.978456c-0.350338,0 -0.525507,-0.175203 -0.700676,-0.350407c-0.525507,-0.52561 -1.051013,-1.05122 -1.57652,-1.752033c-0.350338,-0.52561 -0.350338,-1.226423 0.175169,-1.57683c0.525507,-0.350407 1.226182,-0.350407 1.57652,0.175203c0.525507,0.52561 0.875844,1.05122 1.401351,1.57683c0.525507,0.350407 0.525507,1.05122 0,1.57683c-0.175169,0.175203 -0.525507,0.350407 -0.875844,0.350407zm18.392733,-0.52561c-0.350338,0 -0.700676,-0.175203 -0.875844,-0.52561c-0.350338,-0.52561 -0.175169,-1.226423 0.350338,-1.57683c0.525507,-0.350407 1.226182,-0.700813 1.751689,-1.05122c0.525507,-0.350407 1.226182,-0.175203 1.57652,0.350407c0.350338,0.52561 0.175169,1.226423 -0.350338,1.57683c-0.700676,0.350407 -1.226182,0.876017 -1.926858,1.226423c-0.175169,-0.175203 -0.350338,0 -0.525507,0zm-23.297462,-6.657726c-0.350338,0 -0.875844,-0.175203 -1.051013,-0.700813c-1.57652,-3.328863 -2.277196,-6.307319 -2.277196,-6.482522c-0.175169,-0.52561 0.175169,-1.226423 0.875844,-1.401626c0.525507,-0.175203 1.226182,0.175203 1.401351,0.876017c0,0 0.700676,2.803253 2.102027,5.956913c0.175169,0.52561 0,1.226423 -0.525507,1.401626c-0.350338,0.350407 -0.525507,0.350407 -0.525507,0.350407l0.000001,-0.000002z" id="svg_12" stroke="null"/>
   <g id="svg_13" stroke="null">
    <circle class="st4" cx="52.066846" cy="41.42845" r="4.37922" id="svg_14" stroke="null"/>
    <path class="st1" d="m52.066846,47.034956c-2.977871,0 -5.430236,-2.452846 -5.430236,-5.431303c0,-2.978456 2.452364,-5.431303 5.430236,-5.431303s5.605404,2.277643 5.605404,5.256099c0,3.15366 -2.452364,5.606506 -5.605404,5.606506l0,0.000001zm0,-8.760165c-1.751689,0 -3.328209,1.401626 -3.328209,3.328863s1.401351,3.328863 3.328209,3.328863s3.328209,-1.401626 3.328209,-3.328863s-1.401351,-3.328863 -3.328209,-3.328863z" id="svg_15" stroke="null"/>
   </g>
   <g id="svg_16" stroke="null">
    <circle class="st4" cx="59.073601" cy="35.997148" r="4.379222" id="svg_17" stroke="null"/>
    <path class="st1" d="m59.073601,41.42845c-2.977871,0 -5.430236,-2.452846 -5.430236,-5.431303c0,-2.978456 2.452364,-5.431303 5.430236,-5.431303c2.977871,0 5.430236,2.452846 5.430236,5.431303c0.175169,2.978456 -2.277196,5.431303 -5.430236,5.431303zm0,-8.760165c-1.751689,0 -3.328209,1.401626 -3.328209,3.328863s1.401351,3.328863 3.328209,3.328863s3.328209,-1.401626 3.328209,-3.328863s-1.401351,-3.328863 -3.328209,-3.328863z" id="svg_18" stroke="null"/>
   </g>
   <path class="st1" d="m50.139988,38.625197c-0.350338,0 -0.525507,-0.175203 -0.875844,-0.350407c-0.175169,-0.175203 -2.452364,-2.803253 -0.525507,-8.584962c0.175169,-0.350407 0.525507,-0.700813 0.875844,-0.700813c0.350338,0 0.875844,0.175203 1.051013,0.52561c0,0 2.102027,3.15366 4.554391,3.328863c0.525507,0 1.051013,0.52561 1.051013,1.226423c0,0.52561 -0.525507,1.05122 -1.226182,1.05122c-2.102027,-0.175203 -3.678547,-1.401626 -4.904729,-2.452846c-0.525507,2.978456 0.525507,4.380083 0.525507,4.380083c0.350338,0.52561 0.350338,1.226423 -0.175169,1.57683c0.175169,0 -0.175169,0 -0.350338,0l0.000001,-0.000001z" id="svg_19" stroke="null"/>
   <g id="svg_20" stroke="null">
    <path class="st11" d="m92.706028,65.606507c-1.051013,3.504066 -2.802702,5.606506 -6.130911,9.811385c-4.904729,6.132116 2.102027,16.644314 2.102027,16.644314c0.875844,-0.700813 1.751689,-1.401626 2.802702,-2.10244c9.984627,-7.533742 7.357093,-20.323584 2.277196,-30.660579l-1.051013,6.307319l-0.000001,0.000001z" id="svg_21" stroke="null"/>
    <path class="st1" d="m88.677143,93.113426c0,0 -0.175169,0 -0.175169,0c-0.350338,0 -0.525507,-0.175203 -0.700676,-0.52561c0,-0.175203 -7.532262,-11.213012 -2.102027,-17.870738l0.700676,-0.876017c2.802702,-3.504066 4.379222,-5.431303 5.255067,-8.409759l0.875844,-6.132116c0,-0.52561 0.525507,-0.876017 0.875844,-0.876017c0.525507,0 0.875844,0.175203 1.226182,0.52561c7.006756,13.841061 6.130911,25.40448 -2.452364,31.887002c-0.875844,0.700813 -1.926858,1.401626 -2.802702,2.10244c-0.350338,0.175203 -0.525507,0.175203 -0.700676,0.175203l0.000001,0.000002zm5.430236,-29.959766l-0.350338,2.62805c0,0 0,0.175203 0,0.175203c-1.051013,3.504066 -2.802702,5.606506 -5.605404,9.110572l-0.700676,0.876017c-3.503378,4.380083 0,11.738622 1.57652,14.366671c0.525507,-0.350407 1.226182,-0.876017 1.751689,-1.401626c9.108782,-6.832929 6.30608,-18.571551 3.328209,-25.754886l0,-0.000001z" id="svg_22" stroke="null"/>
   </g>
   <path class="st1" d="m88.677143,81.024398c-0.175169,0 -0.175169,0 -0.350338,0l-6.831587,-2.452846c-0.525507,-0.175203 -0.875844,-0.876017 -0.700676,-1.401626c0.175169,-0.52561 0.875844,-0.876017 1.401351,-0.700813l6.831587,2.452846c0.525507,0.175203 0.875844,0.876017 0.700676,1.401626c-0.175169,0.350407 -0.525507,0.700813 -1.051013,0.700813z" id="svg_23" stroke="null"/>
   <path class="st1" d="m88.677143,85.930091c0,0 -0.175169,0 -0.175169,0l-6.831587,-1.401626c-0.525507,-0.175203 -1.051013,-0.700813 -0.875844,-1.226423c0.175169,-0.52561 0.700676,-1.05122 1.226182,-0.876017l6.831587,1.401626c0.525507,0.175203 1.051013,0.700813 0.875844,1.226423c0,0.52561 -0.525507,0.876017 -1.051013,0.876017z" id="svg_24" stroke="null"/>
   <ellipse transform="matrix(1.5656595244731313,0.7857868412342642,-0.7856324644508833,1.5659671765778937,31.03098753986317,-54.18496144214249) " class="st15" cx="57.769565" cy="45.96521" rx="1.2" ry="2.6" id="svg_25" stroke="null"/>
  </g>
 </g>
</svg>