<?xml version="1.0" encoding="utf-8"?>
<!-- Generator: Adobe Illustrator 16.0.0, SVG Export Plug-In . SVG Version: 6.00 Build 0)  -->
<!DOCTYPE svg PUBLIC "-//W3C//DTD SVG 1.1//EN" "http://www.w3.org/Graphics/SVG/1.1/DTD/svg11.dtd" [
	<!ENTITY ns_flows "http://ns.adobe.com/Flows/1.0/">
	<!ENTITY ns_extend "http://ns.adobe.com/Extensibility/1.0/">
	<!ENTITY ns_ai "http://ns.adobe.com/AdobeIllustrator/10.0/">
	<!ENTITY ns_graphs "http://ns.adobe.com/Graphs/1.0/">
]>
<svg version="1.1" id="图层_1" xmlns:x="&ns_extend;" xmlns:i="&ns_ai;" xmlns:graph="&ns_graphs;"
	 xmlns="http://www.w3.org/2000/svg" xmlns:xlink="http://www.w3.org/1999/xlink" xmlns:a="http://ns.adobe.com/AdobeSVGViewerExtensions/3.0/"
	 x="0px" y="0px" width="90px" height="24px" viewBox="0 0 90 24" enable-background="new 0 0 90 24" xml:space="preserve">
<g>
	<path fill="#00A0E9" d="M6.418,6.582l0.164-0.41c-0.258,0-0.477,0.021-0.656,0.064S5.535,6.348,5.293,6.441
		c-0.297,0.109-0.5,0.164-0.609,0.164c-0.133,0-0.242-0.051-0.328-0.152S4.227,6.227,4.227,6.078c0-0.305,0.123-0.619,0.369-0.943
		s0.549-0.553,0.908-0.686c0.469-0.188,1.072-0.338,1.811-0.451s1.471-0.17,2.197-0.17c0.82,0,1.557,0.059,2.209,0.176
		s1.232,0.305,1.74,0.563s0.953,0.578,1.336,0.961s0.678,0.828,0.885,1.336s0.311,1.047,0.311,1.617
		c0,0.516-0.104,1.094-0.311,1.734s-0.494,1.266-0.861,1.875s-0.77,1.125-1.207,1.547c-0.508,0.492-1.15,0.908-1.928,1.248
		s-1.486,0.51-2.127,0.51c-0.273,0-0.514-0.049-0.721-0.146s-0.311-0.217-0.311-0.357c0-0.219,0.082-0.424,0.246-0.615
		s0.465-0.428,0.902-0.709c0.375-0.219,0.727-0.48,1.055-0.785c0.391-0.429,0.678-0.886,0.861-1.371
		c0.184-0.484,0.275-1.062,0.275-1.734c0-0.64-0.109-1.183-0.328-1.628c-0.218-0.445-0.574-0.844-1.065-1.195l-1.605,5.203
		l-0.293,0.914c-0.125,0.359-0.293,0.977-0.504,1.852c-0.383,1.508-0.742,2.555-1.078,3.14c-0.149,0.258-0.34,0.512-0.575,0.762
		c-0.375,0.328-0.85,0.615-1.424,0.861c-0.574,0.246-1.068,0.369-1.483,0.369c-0.273,0-0.49-0.08-0.65-0.24s-0.24-0.385-0.24-0.674
		c0-0.32,0.08-0.789,0.24-1.406s0.49-1.723,0.99-3.316l0.211-0.656l0.223-0.715L6.418,6.582z"/>
	<path fill="#00A0E9" d="M18.592,20.117c-0.352-0.023-0.671-0.184-0.96-0.48c-0.289-0.313-0.494-0.65-0.615-1.014
		c-0.121-0.363-0.181-0.834-0.181-1.412c0-1.289,0.24-2.744,0.721-4.365s1.025-2.795,1.635-3.521
		c0.242-0.305,0.578-0.457,1.007-0.457c0.453,0,0.818,0.207,1.095,0.621s0.416,0.957,0.416,1.629c0,0.992-0.143,2.154-0.429,3.486
		s-0.687,2.716-1.204,4.154c-0.203,0.579-0.453,0.969-0.749,1.173c-0.203,0.125-0.441,0.188-0.714,0.188H18.592z M20,8.34
		c-0.734-0.023-1.102-0.465-1.102-1.324c0-0.43,0.107-0.928,0.322-1.494s0.459-0.986,0.732-1.26
		c0.141-0.148,0.283-0.254,0.428-0.316s0.33-0.094,0.557-0.094c0.391,0,0.678,0.096,0.861,0.287s0.275,0.51,0.275,0.955
		c0,0.555-0.096,1.08-0.287,1.576S21.34,7.568,21.02,7.877S20.371,8.34,20.035,8.34H20z"/>
	<path fill="#00A0E9" d="M29.293,8.691c0.594,0.023,1.066,0.195,1.418,0.516s0.527,0.75,0.527,1.289
		c0,0.469-0.135,0.941-0.404,1.418s-0.609,0.867-1.02,1.172s-0.822,0.457-1.236,0.457c-0.242,0-0.363-0.086-0.363-0.258
		c0-0.063,0.047-0.199,0.141-0.41c0.305-0.516,0.457-1.109,0.457-1.781c0-0.336-0.039-0.504-0.117-0.504
		c-0.109,0-0.266,0.141-0.469,0.422s-0.375,0.613-0.516,0.996c-0.242,0.602-0.443,1.242-0.604,1.922s-0.24,1.254-0.24,1.723
		c0,0.531,0.08,0.949,0.24,1.254s0.385,0.457,0.674,0.457c0.266,0,0.621-0.141,1.066-0.422s0.867-0.629,1.266-1.043
		c0.164-0.211,0.309-0.316,0.434-0.316c0.188,0,0.281,0.105,0.281,0.316c0,0.961-0.375,1.832-1.125,2.613
		c-0.516,0.516-1.107,0.932-1.775,1.248s-1.268,0.475-1.799,0.475c-0.93,0-1.703-0.293-2.32-0.879s-0.926-1.324-0.926-2.215
		s0.197-1.826,0.592-2.807s0.934-1.912,1.617-2.795s1.459-1.621,2.326-2.215c0.625-0.422,1.234-0.633,1.828-0.633H29.293z"/>
	<path fill="#EA5514" d="M44.062,14.715l-0.236,0.773c-0.039,0.172-0.102,0.402-0.189,0.691c-0.425,1.476-0.774,2.445-1.047,2.906
		c-0.055,0.094-0.156,0.231-0.304,0.411c-0.507,0.461-1.124,0.692-1.85,0.692c-0.578,0-1.042-0.127-1.393-0.381
		s-0.527-0.58-0.527-0.979c0-0.289,0.102-0.807,0.306-1.552c0.203-0.746,0.431-1.455,0.681-2.126
		c-0.611-0.117-0.917-0.379-0.917-0.786c0-0.289,0.095-0.616,0.287-0.979c0.191-0.363,0.431-0.69,0.72-0.979
		c0.289-0.29,0.569-0.477,0.842-0.563c0.117-0.336,0.341-1.042,0.669-2.121c0.743-2.335,1.345-3.902,1.806-4.699
		c0.188-0.266,0.348-0.473,0.48-0.621c0.407-0.383,0.927-0.574,1.56-0.574c0.391,0,0.736,0.068,1.038,0.205
		c0.301,0.137,0.531,0.324,0.692,0.563c0.16,0.238,0.24,0.518,0.24,0.838c0,0.446-0.559,2.316-1.676,5.613
		c-0.016,0.055-0.041,0.135-0.076,0.24s-0.068,0.201-0.1,0.287l-0.047,0.094l4.322-0.094l0.211-0.738
		c0.242-0.797,0.496-1.584,0.762-2.361s0.494-1.402,0.686-1.875s0.385-0.889,0.582-1.248s0.38-0.629,0.553-0.809
		c0.408-0.445,0.969-0.668,1.684-0.668c1.22,0,1.83,0.527,1.83,1.582c0,0.992-0.532,2.802-1.594,5.43
		c-0.157,0.388-0.251,0.625-0.283,0.71c0.031-0.008,0.058-0.014,0.081-0.018s0.05-0.006,0.082-0.006
		c0.426,0,0.764,0.076,1.012,0.229c0.248,0.152,0.372,0.358,0.372,0.616c0,0.172-0.105,0.418-0.315,0.739
		c-0.21,0.321-0.434,0.604-0.671,0.851s-0.442,0.42-0.613,0.522c-0.163,0.086-0.482,0.176-0.957,0.27l-0.047,0.188
		c-0.055,0.117-0.137,0.332-0.247,0.644c-0.165,0.453-0.333,0.908-0.505,1.365c-0.173,0.457-0.315,0.812-0.429,1.065
		c-0.113,0.254-0.225,0.467-0.334,0.638c-0.133,0.188-0.286,0.348-0.458,0.48c-0.376,0.289-0.806,0.525-1.292,0.708
		c-0.485,0.183-0.888,0.275-1.209,0.275c-0.368,0-0.657-0.09-0.869-0.27s-0.317-0.434-0.317-0.762c0-0.563,0.293-1.73,0.881-3.504
		c0.139-0.391,0.235-0.676,0.29-0.855L44.062,14.715z"/>
	<path fill="#EA5514" d="M64.297,8.211c1.164,0,1.746,0.137,1.746,0.41c0,0.313-0.262,0.48-0.785,0.504
		c-0.633,0.039-1.223,0.219-1.77,0.539s-1.033,0.758-1.459,1.313s-0.758,1.18-0.996,1.875s-0.357,1.43-0.357,2.203
		c0,0.852,0.199,1.537,0.598,2.057s0.918,0.779,1.559,0.779c0.594,0,1.113-0.305,1.559-0.914s0.668-1.32,0.668-2.133
		c0-0.664-0.139-1.287-0.416-1.869s-0.682-1.072-1.213-1.471c-0.227-0.18-0.34-0.309-0.34-0.387c0-0.109,0.16-0.277,0.48-0.504
		c0.359-0.242,0.762-0.445,1.207-0.609s0.82-0.246,1.125-0.246c0.352,0,0.686,0.092,1.002,0.275s0.596,0.445,0.838,0.785
		s0.428,0.73,0.557,1.172s0.193,0.912,0.193,1.412c0,0.828-0.156,1.646-0.469,2.455s-0.723,1.463-1.23,1.963
		c-0.656,0.633-1.447,1.15-2.373,1.553s-1.807,0.604-2.643,0.604c-0.813,0-1.619-0.141-2.42-0.422s-1.436-0.652-1.904-1.113
		c-0.625-0.625-0.938-1.512-0.938-2.66c0-0.906,0.223-1.813,0.668-2.719s1.049-1.729,1.811-2.467s1.602-1.32,2.52-1.746
		S63.359,8.211,64.297,8.211z"/>
	<path fill="#EA5514" d="M72.98,20.504c0.461-0.023,0.881-0.248,1.26-0.674s0.568-0.889,0.568-1.389c0-0.344-0.113-0.617-0.34-0.82
		c-0.242-0.242-0.785-0.48-1.629-0.715c-1.242-0.359-2.051-0.762-2.426-1.207c-0.352-0.359-0.527-0.789-0.527-1.289
		c0-0.898,0.326-1.797,0.979-2.695s1.486-1.635,2.502-2.209s2.039-0.861,3.07-0.861c0.5,0,0.969,0.117,1.406,0.352
		s0.785,0.545,1.043,0.932s0.387,0.807,0.387,1.26c0,0.445-0.141,0.906-0.422,1.383s-0.635,0.873-1.061,1.189
		s-0.83,0.475-1.213,0.475c-0.219,0-0.408-0.047-0.568-0.141s-0.24-0.195-0.24-0.305s0.031-0.27,0.094-0.48
		c0.172-0.672,0.258-1.258,0.258-1.758c0-0.492-0.148-0.957-0.445-1.395c-0.383,0.266-0.633,0.476-0.75,0.632
		c-0.297,0.344-0.527,0.734-0.691,1.171c-0.18,0.445-0.27,0.866-0.27,1.264c0,0.281,0.064,0.506,0.194,0.673
		c0.129,0.168,0.34,0.311,0.633,0.428s0.736,0.247,1.33,0.387c0.992,0.243,1.691,0.477,2.097,0.704
		c0.094,0.055,0.238,0.168,0.433,0.34c0.297,0.32,0.445,0.735,0.445,1.243c0,0.54-0.168,1.084-0.504,1.635
		c-0.336,0.551-0.855,1.12-1.559,1.706c-0.75,0.633-1.496,1.086-2.238,1.36c-0.742,0.273-1.563,0.41-2.461,0.41
		c-0.867,0-1.549-0.172-2.045-0.516s-0.744-0.813-0.744-1.406c0-0.422,0.164-0.85,0.492-1.283s0.736-0.787,1.225-1.061
		s0.967-0.41,1.436-0.41c0.352,0,0.527,0.078,0.527,0.234c0,0.078-0.051,0.207-0.152,0.387c-0.305,0.547-0.457,1.051-0.457,1.512
		C72.617,19.895,72.738,20.207,72.98,20.504z"/>
	<path fill="#EA5514" d="M82.473,8.668l0.047-0.141c0.516-1.453,0.962-2.477,1.337-3.07c0.18-0.281,0.43-0.531,0.751-0.75
		c0.603-0.383,1.169-0.574,1.701-0.574c0.313,0,0.551,0.07,0.716,0.211c0.164,0.141,0.247,0.344,0.247,0.61
		c0,0.18-0.118,0.547-0.354,1.101c-0.401,0.922-0.7,1.785-0.896,2.589c0.133,0.016,0.262,0.039,0.387,0.07
		c0.469,0.07,0.778,0.15,0.927,0.24c0.149,0.09,0.223,0.252,0.223,0.486c0,0.415-0.105,0.797-0.316,1.149s-0.488,0.61-0.831,0.774
		c-0.258,0.117-0.676,0.195-1.253,0.234c-0.1,0.305-0.212,0.723-0.336,1.254c-0.069,0.469-0.147,1.118-0.232,1.946
		c-0.047,0.305-0.07,0.589-0.07,0.855c0,1.233,0.598,1.85,1.793,1.85h0.07h0.035c0.141,0,0.211,0.023,0.211,0.07
		c0,0.125-0.133,0.336-0.398,0.633s-0.559,0.559-0.879,0.785c-0.344,0.234-0.719,0.422-1.125,0.563
		c-0.407,0.141-0.775,0.211-1.104,0.211c-0.822,0-1.489-0.277-2.002-0.832s-0.769-1.289-0.769-2.203
		c0-0.391,0.068-0.902,0.205-1.535s0.35-1.48,0.639-2.543c0.047-0.188,0.098-0.385,0.152-0.592s0.086-0.33,0.094-0.369
		c-0.313-0.008-0.535-0.074-0.668-0.199s-0.199-0.328-0.199-0.609c0-0.492,0.189-0.957,0.568-1.395S81.965,8.777,82.473,8.668z"/>
</g>
</svg>
