<svg xmlns="http://www.w3.org/2000/svg" viewBox="0 0 171.02 18.54"><defs><style>.a{fill:#54b2fa;}</style></defs><title>logo01</title><path class="a" d="M17.13,9.89q-.79,0-2.49-.12c-1.08-.07-1.91-.11-2.49-.1,0,.78.12,2.17.28,4.16.14,1.77.21,3.16.21,4.19,0,.23,0,.57.07,1s.08.81.08,1a2.87,2.87,0,0,1-.33,1.38,1.3,1.3,0,0,1-1.2.79,1.52,1.52,0,0,1-1-.36,1.24,1.24,0,0,1-.48-1,3.43,3.43,0,0,1,.05-.44A2.16,2.16,0,0,0,9.88,20c0-.32,0-.79-.06-1.43s-.07-1.11-.07-1.43c0-.92-.07-2.16-.21-3.73-.17-1.79-.26-3-.29-3.72H8.72a15.78,15.78,0,0,1-3.63-.33A1.29,1.29,0,0,1,4,8a1.37,1.37,0,0,1,.37-.94,1.24,1.24,0,0,1,1.12-.45c.24,0,.79.07,1.64.17a14.09,14.09,0,0,0,1.64.11c.41,0,1,0,1.87,0l1.87,0c.52,0,1.3,0,2.34.11s1.81.11,2.33.11a1.4,1.4,0,0,1,1,.4,1.29,1.29,0,0,1,.42,1,1.32,1.32,0,0,1-.42,1A1.41,1.41,0,0,1,17.13,9.89Z" transform="translate(-3.95 -5.36)"/><path class="a" d="M26.52,22.81a7.91,7.91,0,0,1-5.17-1.75,5.94,5.94,0,0,1-2.28-4.83,10.22,10.22,0,0,1,2.19-6.35,7.43,7.43,0,0,1,6.17-3.23,7.66,7.66,0,0,1,5.36,1.64,6.36,6.36,0,0,1,1.79,4.93,10.68,10.68,0,0,1-2,6.32A7.12,7.12,0,0,1,26.52,22.81Zm.91-13.39a4.76,4.76,0,0,0-3.92,2.22A7.54,7.54,0,0,0,22,16.23,3.4,3.4,0,0,0,23.31,19a4.89,4.89,0,0,0,3.21,1,4.45,4.45,0,0,0,3.76-2.22,7.94,7.94,0,0,0,1.38-4.59,3.87,3.87,0,0,0-1-3A5.11,5.11,0,0,0,27.43,9.42Z" transform="translate(-3.95 -5.36)"/><path class="a" d="M48.51,9.89q-.8,0-2.49-.12c-1.09-.07-1.92-.11-2.49-.1,0,.78.12,2.17.27,4.16C44,15.6,44,17,44,18a10.07,10.07,0,0,0,.07,1,10.23,10.23,0,0,1,.07,1,3,3,0,0,1-.32,1.38,1.3,1.3,0,0,1-1.2.79,1.52,1.52,0,0,1-1-.36,1.24,1.24,0,0,1-.48-1,3.43,3.43,0,0,1,.05-.44,3.25,3.25,0,0,0,0-.44c0-.32,0-.79-.07-1.43s-.06-1.11-.06-1.43c0-.92-.07-2.16-.22-3.73-.16-1.79-.26-3-.28-3.72h-.54a15.9,15.9,0,0,1-3.63-.33A1.29,1.29,0,0,1,35.32,8a1.41,1.41,0,0,1,.37-.94,1.26,1.26,0,0,1,1.13-.45c.24,0,.78.07,1.63.17a14.37,14.37,0,0,0,1.64.11c.42,0,1,0,1.87,0l1.88,0c.51,0,1.29,0,2.33.11s1.82.11,2.34.11a1.4,1.4,0,0,1,1,.4,1.29,1.29,0,0,1,.42,1,1.32,1.32,0,0,1-.42,1A1.41,1.41,0,0,1,48.51,9.89Z" transform="translate(-3.95 -5.36)"/><path class="a" d="M57.89,22.81a7.9,7.9,0,0,1-5.16-1.75,5.94,5.94,0,0,1-2.28-4.83,10.27,10.27,0,0,1,2.18-6.35,7.45,7.45,0,0,1,6.18-3.23,7.66,7.66,0,0,1,5.36,1.64A6.35,6.35,0,0,1,66,13.22a10.68,10.68,0,0,1-2,6.32A7.09,7.09,0,0,1,57.89,22.81Zm.92-13.39a4.76,4.76,0,0,0-3.92,2.22,7.54,7.54,0,0,0-1.53,4.59A3.39,3.39,0,0,0,54.68,19a4.93,4.93,0,0,0,3.21,1,4.45,4.45,0,0,0,3.77-2.22A7.94,7.94,0,0,0,63,13.22a3.87,3.87,0,0,0-1-3A5.11,5.11,0,0,0,58.81,9.42Z" transform="translate(-3.95 -5.36)"/><path class="a" d="M78.15,22.3a1.46,1.46,0,0,1-1-.43,17.25,17.25,0,0,0-6.83-4c.08,2,.11,3.1.11,3.31a1.31,1.31,0,0,1-.41,1,1.39,1.39,0,0,1-1,.41,1.43,1.43,0,0,1-1-.41,1.35,1.35,0,0,1-.41-1c0-.51,0-1.27,0-2.3s0-1.79,0-2.3l0-8.27A2,2,0,0,1,68,7.06a1.53,1.53,0,0,1,1.45-.63c1.66.12,2.51.19,2.55.2a7.17,7.17,0,0,1,2.44.68q4.38,2.2,4.38,5.47a3.43,3.43,0,0,1-.92,2.37,6.93,6.93,0,0,1-2.75,1.74A15,15,0,0,1,79.24,20a1.34,1.34,0,0,1-.07,1.9A1.41,1.41,0,0,1,78.15,22.3ZM71.57,9.4l-1.2-.08v5.45h.45a8.43,8.43,0,0,0,3.73-.63,3.74,3.74,0,0,0,1-.71c.29-.29.44-.51.44-.66a2.88,2.88,0,0,0-1.46-2.22A6,6,0,0,0,71.57,9.4Z" transform="translate(-3.95 -5.36)"/><path class="a" d="M88.1,22.81a8,8,0,0,1-5.17-1.75,6,6,0,0,1-2.27-4.83,10.27,10.27,0,0,1,2.18-6.35A7.43,7.43,0,0,1,89,6.65c2.39,0,4.18.54,5.37,1.64a6.35,6.35,0,0,1,1.78,4.93,10.68,10.68,0,0,1-2,6.32A7.09,7.09,0,0,1,88.1,22.81ZM89,9.42a4.75,4.75,0,0,0-3.91,2.22,7.54,7.54,0,0,0-1.53,4.59A3.39,3.39,0,0,0,84.89,19a4.93,4.93,0,0,0,3.21,1,4.42,4.42,0,0,0,3.76-2.22,7.87,7.87,0,0,0,1.39-4.59,3.87,3.87,0,0,0-1-3A5.12,5.12,0,0,0,89,9.42Z" transform="translate(-3.95 -5.36)"/><path class="a" d="M103.12,22.92a4.79,4.79,0,0,1-4.28-2.05,7.57,7.57,0,0,1-1.11-4.31A11.09,11.09,0,0,1,102,7.91l1.07-1a2.12,2.12,0,0,1,1.24-.66,1.44,1.44,0,0,1,1,.38,1.33,1.33,0,0,1,.45.93q0,.51-1.17,1.65l-1.69,1.55a6.42,6.42,0,0,0-1.37,1.8,7.89,7.89,0,0,1,1-.32,4.84,4.84,0,0,1,.88-.1,5.54,5.54,0,0,1,4,1.34,4.92,4.92,0,0,1,1.4,3.73,5.73,5.73,0,0,1-1.48,4.07A5.48,5.48,0,0,1,103.12,22.92Zm0-8a3.47,3.47,0,0,0-1.36.25,12,12,0,0,0-1.17.64,7.28,7.28,0,0,0,0,.78,5.22,5.22,0,0,0,.66,2.91,2.22,2.22,0,0,0,2,1,2.56,2.56,0,0,0,2.09-.9,3.62,3.62,0,0,0,.7-2.35,2.11,2.11,0,0,0-.7-1.73A3.39,3.39,0,0,0,103.12,14.89Z" transform="translate(-3.95 -5.36)"/><path class="a" d="M120,22.2a5.35,5.35,0,0,1-.79-.09,6.73,6.73,0,0,0-.78-.08h-3a11.34,11.34,0,0,0-1.18.09,9.64,9.64,0,0,1-1.19.1,1.6,1.6,0,0,1-.33,0,1.6,1.6,0,0,0-.33,0,1.24,1.24,0,0,1-1.25-.75,3.82,3.82,0,0,1-.2-1.46,5.73,5.73,0,0,1,.85-3.21,7.46,7.46,0,0,1,2.12-2l2.76-1.82a3.32,3.32,0,0,0,1.62-2.68c0-.25-.22-.51-.65-.77a2.41,2.41,0,0,0-1.26-.38,3.79,3.79,0,0,0-2.3,1,3.77,3.77,0,0,1-1.67,1,1.67,1.67,0,0,1-1-.26,1,1,0,0,1-.51-.92,1.39,1.39,0,0,1,.51-1.07,12.51,12.51,0,0,1,2.16-1.6,5.65,5.65,0,0,1,2.76-.73,5.74,5.74,0,0,1,3.2.93,3.21,3.21,0,0,1,1.63,2.79,5.36,5.36,0,0,1-.8,3,7,7,0,0,1-2,1.89l-2.56,1.61a4,4,0,0,0-2.09,2.9c.37,0,.93-.1,1.66-.16,1.45-.07,2.5-.11,3.13-.11a4.21,4.21,0,0,1,1.74.38c.71.31,1.06.71,1.06,1.21a1.32,1.32,0,0,1-.37.93A1.3,1.3,0,0,1,120,22.2Z" transform="translate(-3.95 -5.36)"/><path class="a" d="M128.2,22.83a5.16,5.16,0,0,1-4.62-2.24,1.39,1.39,0,0,1-.26-.75,1.22,1.22,0,0,1,.44-.94,1.49,1.49,0,0,1,1-.39,1.29,1.29,0,0,1,1,.43c.48.5.74.77.78.8a2.83,2.83,0,0,0,1.67.43A3.44,3.44,0,0,0,130.84,19a3.86,3.86,0,0,0,1-2.71,4.12,4.12,0,0,0-.5-2.28,1.72,1.72,0,0,0-1.54-.76,3.79,3.79,0,0,0-2.9,1.17c-.28.33-.58.65-.87,1a1.7,1.7,0,0,1-1.18.53,1.38,1.38,0,0,1-1-.4,1.3,1.3,0,0,1-.4-.95c0-.15,0-.75.17-1.78.23-2,.34-3.34.34-4a2,2,0,0,0-.18-.68,1.86,1.86,0,0,1-.18-.67.82.82,0,0,1,.52-.78,2.13,2.13,0,0,1,1-.21,6.14,6.14,0,0,1,.62,0l.62,0h4.93l.79-.06.8-.06a1.26,1.26,0,0,1,.91.35,1.23,1.23,0,0,1,.36.91c0,1-1,1.53-3.11,1.53h-4.17c0,.42-.11,1.11-.26,2.07a7.24,7.24,0,0,1,3.21-.66,4.33,4.33,0,0,1,3.79,1.86,6.49,6.49,0,0,1,1.07,3.84A6.47,6.47,0,0,1,133,20.92,6.23,6.23,0,0,1,128.2,22.83Z" transform="translate(-3.95 -5.36)"/><path class="a" d="M147.4,8.48h2a.67.67,0,0,0,.33.08,3.83,3.83,0,0,1,1.15.25,37.36,37.36,0,0,1,1.8,5.91v3a12.27,12.27,0,0,1-1.8,4.43l-.33.16a4.22,4.22,0,0,1-1.81,1.64l-.16-.16.33-.66a.68.68,0,0,0-.33.09,2.52,2.52,0,0,1-.49.08,1.07,1.07,0,0,1-.66-.25c-.27-.22-.49-.3-.66-.25l.17.33a4.4,4.4,0,0,1-1.64.33h-1a1.94,1.94,0,0,1-1.31-.49c-.05-.6.55-1.09,1.81-1.48a3.83,3.83,0,0,0,1.14-.49v-.16l-.32-.17a.3.3,0,0,1-.09-.24,1,1,0,0,1,.09-1.07.77.77,0,0,1-.33-.66c-.06-.27.13-.49.57-.65a1.08,1.08,0,0,1,.25-.17l.08-.08a2,2,0,0,1,.57-.25q1.23.09,1.32,1a1.63,1.63,0,0,1-.66.74l-.16.08c.87.11,1.31.55,1.31,1.31,0,.11-.25.3-.74.58l-.08.08a2,2,0,0,1,2,.82l.16-.17a5.91,5.91,0,0,1,.25-.57,9.14,9.14,0,0,0,1.39-4V15.86c0-.32,0-.73-.08-1.23s-.14-1-.25-1.72q-.4-2.79-1.8-2.79c-1.26.28-2.52.49-3.77.66a2.67,2.67,0,0,1-.58.08c-1.48,0-2.43.25-2.87.74a5.28,5.28,0,0,0-.82,1.31,10.76,10.76,0,0,0-.49,3.28v1.48a16.74,16.74,0,0,0,.65,2.3c.22.49.39.87.5,1.14a1.44,1.44,0,0,1-.17,1.64,2.79,2.79,0,0,1-.82-.82,4.05,4.05,0,0,0-.49-.82,1.19,1.19,0,0,1-.33-.65,4,4,0,0,0-.24-1.15.43.43,0,0,1-.09-.33,8.87,8.87,0,0,1-.41-1.39,2.49,2.49,0,0,1-.08-1.07V15.7c0-.33,0-.82.08-1.48a9.3,9.3,0,0,1,.91-3.93l.08-.17c.38-.76.74-1.15,1.06-1.15a1.5,1.5,0,0,1,1,.66Q144,8.47,147.4,8.48Zm-4.27,5.42,2.3-2.3a2.63,2.63,0,0,1,.66-.41,1.44,1.44,0,0,1,.33-.25c.54.22.65.6.32,1.15a1.84,1.84,0,0,1,2.3.16c.44.39.38,1.15-.16,2.3a1,1,0,0,0-.17.33,2.68,2.68,0,0,0,.74.16c1.09.11,1.67.39,1.72.82-.11.39-.65.72-1.64,1A2.14,2.14,0,0,1,149,17a6.45,6.45,0,0,1-1.48.33l1.32-1c.05-.22-.11-.33-.5-.33a1.74,1.74,0,0,0-1.14.49l-.17.16a6.11,6.11,0,0,1-4.26,1.81c-1.1,0-1.64-.38-1.64-1s.71-1.09,2.13-1.64a12.57,12.57,0,0,1,2.62-.82h.33a1.75,1.75,0,0,0,1-.32c.54-.66.65-1.21.32-1.64a3.38,3.38,0,0,0-1.8.73,1.89,1.89,0,0,1-.49.25,5.11,5.11,0,0,0-1.81,1c-.27.17-.44,0-.49-.49A.76.76,0,0,1,143.13,13.9Zm-1.64-2.79-.32.65h.16l.33-.49Zm.66,6.07c0,.11.16.16.33.16a4.49,4.49,0,0,0,3.44-1.15A7.11,7.11,0,0,0,142.15,17.18Z" transform="translate(-3.95 -5.36)"/><path class="a" d="M159.05,22.59v-.66c-.06-.27.16-.71.66-1.31,0-.05.21-.19.49-.41s.6-.41.65-.57a5,5,0,0,1,.66-1.56,6,6,0,0,1,.33-.58,13.63,13.63,0,0,0,.65-2c.06-.17.11-.36.17-.58a7.37,7.37,0,0,0,.65-2.54.29.29,0,0,0-.32-.33h-.66c-.55-.05-.82-.22-.82-.49a1.89,1.89,0,0,1,1.15-1.31L164.3,10a7.07,7.07,0,0,1,.74-.58,3.56,3.56,0,0,0,.9-.73,6.23,6.23,0,0,0,1-1.65l-.49-.32a1.14,1.14,0,0,1,1.15-1.32,1.23,1.23,0,0,1,1.15,1.48,20.14,20.14,0,0,0-3.45,2.95,52.06,52.06,0,0,1,5.75-1,.69.69,0,0,1,.41.25.66.66,0,0,0,.41.24c0,.71-.69,1.15-2.06,1.31h-.57l-3.44.66c-.17.06-.22.08-.17.08-.38.11-.6.25-.65.41a6.47,6.47,0,0,0-.5,1.32c-.16.54-.27.93-.33,1.14a7.83,7.83,0,0,0-.82,1.73c-.16.43-.32.84-.49,1.23a4.68,4.68,0,0,0-.82,1.88c-.16.5-.27.85-.33,1.07a7.54,7.54,0,0,1-.57,1,7,7,0,0,0-.41.82,3.6,3.6,0,0,1-1.31,1.81c-.22.11-.39,0-.5-.33A2.19,2.19,0,0,1,159.05,22.59Zm13-8.53-2,.82a.23.23,0,0,0-.16.33V16A5.64,5.64,0,0,0,172,17.5a2.55,2.55,0,0,0,.66.25,4,4,0,0,1,1.14.41A3.71,3.71,0,0,1,175,19.31a1.59,1.59,0,0,1-1,.41,1.84,1.84,0,0,0-.66.08h-.16c-.28-.11-.69-.24-1.23-.41a9.87,9.87,0,0,1-2.05-1.06.46.46,0,0,0-.17.32v.82a6.56,6.56,0,0,1-.65,3l-.09.08c-.38.76-.73,1.17-1.06,1.23a.76.76,0,0,0-.17-.66l.17-.33-.66-.49v-.08c.77-.38,1.2-.74,1.31-1.07a5.62,5.62,0,0,0,.17-1.64c-.06-.49-.11-1-.17-1.47a.37.37,0,0,1-.08-.25,1.88,1.88,0,0,0-.24-.74A19.87,19.87,0,0,1,164,21.28a14.88,14.88,0,0,1-1.31.9,2,2,0,0,0-.82.41h-.17c.33-.33.66-.68,1-1.07a23.06,23.06,0,0,0,4.26-5.66l-1.47.33h-.82c-.17,0-.28-.05-.33-.16a2.41,2.41,0,0,1,1.48-1.64l1-.33a3.05,3.05,0,0,0,1.48-.66c-.33-1.42-.06-2.18.82-2.29.43,0,.68.43.73,1.31,0,.27,0,.44.09.49a3,3,0,0,1,1-.16,1,1,0,0,0,.33.16c.71.17,1.09.38,1.15.66S172.17,14,172,14.06Z" transform="translate(-3.95 -5.36)"/></svg>